<mxfile host="app.diagrams.net" agent="Mozilla/5.0 (Windows NT 10.0; Win64; x64) AppleWebKit/537.36 (KHTML, like Gecko) Chrome/129.0.0.0 Safari/537.36" version="24.8.4">
  <diagram name="Page-1" id="8ce9d11a-91a2-4d17-14d8-a56ed91bf033">
    <mxGraphModel dx="2534" dy="1588" grid="1" gridSize="10" guides="1" tooltips="1" connect="1" arrows="1" fold="1" page="1" pageScale="1" pageWidth="1100" pageHeight="850" background="none" math="0" shadow="0">
      <root>
        <mxCell id="0" />
        <mxCell id="1" parent="0" />
        <mxCell id="17ea667e15c223fc-28" style="edgeStyle=orthogonalEdgeStyle;rounded=1;html=1;labelBackgroundColor=none;startArrow=none;startFill=0;startSize=5;endArrow=classicThin;endFill=1;endSize=5;jettySize=auto;orthogonalLoop=1;strokeWidth=1;fontFamily=Verdana;fontSize=8" parent="1" source="17ea667e15c223fc-1" target="17ea667e15c223fc-2" edge="1">
          <mxGeometry relative="1" as="geometry" />
        </mxCell>
        <mxCell id="17ea667e15c223fc-1" value="Observers: Senior Management&amp;nbsp;" style="shape=hexagon;perimeter=hexagonPerimeter;whiteSpace=wrap;html=1;rounded=0;shadow=0;labelBackgroundColor=none;strokeWidth=1;fontFamily=Verdana;fontSize=12;align=center;fillColor=#dae8fc;strokeColor=#6c8ebf;" parent="1" vertex="1">
          <mxGeometry x="330" y="180" width="140" height="90" as="geometry" />
        </mxCell>
        <mxCell id="17ea667e15c223fc-29" style="edgeStyle=orthogonalEdgeStyle;rounded=1;html=1;labelBackgroundColor=none;startArrow=none;startFill=0;startSize=5;endArrow=classicThin;endFill=1;endSize=5;jettySize=auto;orthogonalLoop=1;strokeWidth=3;fontFamily=Verdana;fontSize=8;strokeColor=#F20C0C;dashed=1;dashPattern=8 8;" parent="1" source="17ea667e15c223fc-2" target="17ea667e15c223fc-3" edge="1">
          <mxGeometry relative="1" as="geometry" />
        </mxCell>
        <mxCell id="17ea667e15c223fc-2" value="Data Management Team&amp;nbsp;" style="rounded=1;whiteSpace=wrap;html=1;shadow=0;labelBackgroundColor=none;strokeWidth=1;fontFamily=Verdana;fontSize=12;align=center;fillColor=#dae8fc;strokeColor=#6c8ebf;" parent="1" vertex="1">
          <mxGeometry x="500" y="180" width="130" height="80" as="geometry" />
        </mxCell>
        <mxCell id="17ea667e15c223fc-30" style="edgeStyle=orthogonalEdgeStyle;rounded=1;html=1;labelBackgroundColor=none;startArrow=none;startFill=0;startSize=5;endArrow=classicThin;endFill=1;endSize=5;jettySize=auto;orthogonalLoop=1;strokeWidth=3;fontFamily=Verdana;fontSize=8;strokeColor=#F20C0C;dashed=1;dashPattern=8 8;" parent="1" source="17ea667e15c223fc-3" target="17ea667e15c223fc-5" edge="1">
          <mxGeometry relative="1" as="geometry">
            <Array as="points">
              <mxPoint x="890" y="305" />
            </Array>
          </mxGeometry>
        </mxCell>
        <mxCell id="17ea667e15c223fc-31" style="edgeStyle=orthogonalEdgeStyle;rounded=1;html=1;labelBackgroundColor=none;startArrow=none;startFill=0;startSize=5;endArrow=classicThin;endFill=1;endSize=5;jettySize=auto;orthogonalLoop=1;strokeWidth=3;fontFamily=Verdana;fontSize=8;strokeColor=#F20C0C;dashed=1;dashPattern=8 8;" parent="1" source="17ea667e15c223fc-3" target="17ea667e15c223fc-4" edge="1">
          <mxGeometry relative="1" as="geometry" />
        </mxCell>
        <mxCell id="17ea667e15c223fc-3" value="" style="ellipse;whiteSpace=wrap;html=1;rounded=1;shadow=0;labelBackgroundColor=none;strokeWidth=1;fontFamily=Verdana;fontSize=12;align=center;" parent="1" vertex="1">
          <mxGeometry x="545" y="290" width="40" height="30" as="geometry" />
        </mxCell>
        <mxCell id="f6jDIG0TlL_JZQscTppI-56" style="edgeStyle=orthogonalEdgeStyle;rounded=0;orthogonalLoop=1;jettySize=auto;html=1;entryX=0.5;entryY=0;entryDx=0;entryDy=0;strokeColor=#F20C0C;dashed=1;dashPattern=8 8;strokeWidth=3;" edge="1" parent="1" source="17ea667e15c223fc-4" target="f6jDIG0TlL_JZQscTppI-16">
          <mxGeometry relative="1" as="geometry">
            <Array as="points">
              <mxPoint x="240" y="470" />
              <mxPoint x="270" y="470" />
            </Array>
          </mxGeometry>
        </mxCell>
        <mxCell id="f6jDIG0TlL_JZQscTppI-57" value="" style="edgeStyle=orthogonalEdgeStyle;rounded=0;orthogonalLoop=1;jettySize=auto;html=1;entryX=0.75;entryY=0;entryDx=0;entryDy=0;strokeColor=#F20C0C;dashed=1;dashPattern=8 8;strokeWidth=3;" edge="1" parent="1" target="17ea667e15c223fc-7">
          <mxGeometry relative="1" as="geometry">
            <mxPoint x="240" y="440" as="sourcePoint" />
            <Array as="points">
              <mxPoint x="240" y="470" />
              <mxPoint x="130" y="470" />
            </Array>
          </mxGeometry>
        </mxCell>
        <mxCell id="f6jDIG0TlL_JZQscTppI-87" style="edgeStyle=orthogonalEdgeStyle;rounded=0;orthogonalLoop=1;jettySize=auto;html=1;entryX=0;entryY=1;entryDx=0;entryDy=0;strokeWidth=4;strokeColor=#55A600;" edge="1" parent="1">
          <mxGeometry relative="1" as="geometry">
            <mxPoint x="295" y="360" as="sourcePoint" />
            <mxPoint x="505" y="250" as="targetPoint" />
            <Array as="points">
              <mxPoint x="455" y="360" />
              <mxPoint x="455" y="250" />
            </Array>
          </mxGeometry>
        </mxCell>
        <mxCell id="17ea667e15c223fc-4" value="Data Monitor 1&amp;nbsp;" style="shape=hexagon;perimeter=hexagonPerimeter;whiteSpace=wrap;html=1;rounded=0;shadow=0;labelBackgroundColor=none;strokeWidth=1;fontFamily=Verdana;fontSize=12;align=center;fillColor=#d5e8d4;strokeColor=#82b366;" parent="1" vertex="1">
          <mxGeometry x="170" y="330" width="120" height="80" as="geometry" />
        </mxCell>
        <mxCell id="f6jDIG0TlL_JZQscTppI-86" style="edgeStyle=orthogonalEdgeStyle;rounded=0;orthogonalLoop=1;jettySize=auto;html=1;entryX=1;entryY=0.25;entryDx=0;entryDy=0;strokeWidth=4;strokeColor=#55A600;" edge="1" parent="1" source="17ea667e15c223fc-5" target="17ea667e15c223fc-2">
          <mxGeometry relative="1" as="geometry">
            <Array as="points">
              <mxPoint x="920" y="200" />
            </Array>
          </mxGeometry>
        </mxCell>
        <mxCell id="17ea667e15c223fc-5" value="Data Monitor 3&amp;nbsp;" style="shape=hexagon;perimeter=hexagonPerimeter;whiteSpace=wrap;html=1;rounded=0;shadow=0;labelBackgroundColor=none;strokeWidth=1;fontFamily=Verdana;fontSize=12;align=center;fillColor=#fff2cc;strokeColor=#d6b656;" parent="1" vertex="1">
          <mxGeometry x="850" y="340" width="120" height="80" as="geometry" />
        </mxCell>
        <mxCell id="f6jDIG0TlL_JZQscTppI-67" style="edgeStyle=orthogonalEdgeStyle;rounded=0;orthogonalLoop=1;jettySize=auto;html=1;entryX=0;entryY=0.5;entryDx=0;entryDy=0;strokeWidth=4;strokeColor=#55A600;" edge="1" parent="1" source="17ea667e15c223fc-7" target="17ea667e15c223fc-4">
          <mxGeometry relative="1" as="geometry">
            <Array as="points">
              <mxPoint x="70" y="370" />
            </Array>
          </mxGeometry>
        </mxCell>
        <mxCell id="17ea667e15c223fc-7" value="Team/ Supervisor 11" style="rounded=1;whiteSpace=wrap;html=1;shadow=0;labelBackgroundColor=none;strokeWidth=1;fontFamily=Verdana;fontSize=12;align=center;fillColor=#d5e8d4;strokeColor=#82b366;" parent="1" vertex="1">
          <mxGeometry x="40" y="520" width="120" height="80" as="geometry" />
        </mxCell>
        <mxCell id="17ea667e15c223fc-8" value="Team/ Supervisor 33" style="rounded=1;whiteSpace=wrap;html=1;shadow=0;labelBackgroundColor=none;strokeWidth=1;fontFamily=Verdana;fontSize=12;align=center;fillColor=#fff2cc;strokeColor=#d6b656;" parent="1" vertex="1">
          <mxGeometry x="970" y="520" width="120" height="80" as="geometry" />
        </mxCell>
        <mxCell id="f6jDIG0TlL_JZQscTppI-62" style="edgeStyle=orthogonalEdgeStyle;rounded=0;orthogonalLoop=1;jettySize=auto;html=1;entryX=0.75;entryY=0;entryDx=0;entryDy=0;strokeColor=#F20C0C;dashed=1;dashPattern=8 8;strokeWidth=3;" edge="1" parent="1" source="f6jDIG0TlL_JZQscTppI-6" target="f6jDIG0TlL_JZQscTppI-12">
          <mxGeometry relative="1" as="geometry" />
        </mxCell>
        <mxCell id="f6jDIG0TlL_JZQscTppI-84" style="edgeStyle=orthogonalEdgeStyle;rounded=0;orthogonalLoop=1;jettySize=auto;html=1;entryX=0.25;entryY=1;entryDx=0;entryDy=0;strokeWidth=4;strokeColor=#55A600;" edge="1" parent="1" source="f6jDIG0TlL_JZQscTppI-6" target="17ea667e15c223fc-2">
          <mxGeometry relative="1" as="geometry">
            <Array as="points">
              <mxPoint x="540" y="300" />
              <mxPoint x="533" y="300" />
            </Array>
          </mxGeometry>
        </mxCell>
        <mxCell id="f6jDIG0TlL_JZQscTppI-6" value="Data Monitor 2&amp;nbsp;" style="shape=hexagon;perimeter=hexagonPerimeter;whiteSpace=wrap;html=1;rounded=0;shadow=0;labelBackgroundColor=none;strokeWidth=1;fontFamily=Verdana;fontSize=12;align=center;fillColor=#e1d5e7;strokeColor=#9673a6;" vertex="1" parent="1">
          <mxGeometry x="500" y="340" width="120" height="70" as="geometry" />
        </mxCell>
        <mxCell id="f6jDIG0TlL_JZQscTppI-8" value="" style="endArrow=classic;html=1;rounded=0;exitX=0.5;exitY=1;exitDx=0;exitDy=0;entryX=0.567;entryY=0.025;entryDx=0;entryDy=0;entryPerimeter=0;" edge="1" parent="1" source="17ea667e15c223fc-3" target="f6jDIG0TlL_JZQscTppI-6">
          <mxGeometry width="50" height="50" relative="1" as="geometry">
            <mxPoint x="520" y="440" as="sourcePoint" />
            <mxPoint x="570" y="390" as="targetPoint" />
          </mxGeometry>
        </mxCell>
        <mxCell id="f6jDIG0TlL_JZQscTppI-80" style="edgeStyle=orthogonalEdgeStyle;rounded=0;orthogonalLoop=1;jettySize=auto;html=1;entryX=0;entryY=0.5;entryDx=0;entryDy=0;strokeWidth=4;strokeColor=#55A600;" edge="1" parent="1" source="f6jDIG0TlL_JZQscTppI-12" target="f6jDIG0TlL_JZQscTppI-6">
          <mxGeometry relative="1" as="geometry" />
        </mxCell>
        <mxCell id="f6jDIG0TlL_JZQscTppI-121" style="edgeStyle=orthogonalEdgeStyle;rounded=0;orthogonalLoop=1;jettySize=auto;html=1;entryX=0.5;entryY=0;entryDx=0;entryDy=0;dashed=1;strokeWidth=3;strokeColor=#F50C0C;dashPattern=8 8;" edge="1" parent="1" source="f6jDIG0TlL_JZQscTppI-12" target="f6jDIG0TlL_JZQscTppI-69">
          <mxGeometry relative="1" as="geometry" />
        </mxCell>
        <mxCell id="f6jDIG0TlL_JZQscTppI-12" value="Team/ Supervisor 21" style="rounded=1;whiteSpace=wrap;html=1;shadow=0;labelBackgroundColor=none;strokeWidth=1;fontFamily=Verdana;fontSize=12;align=center;fillColor=#e1d5e7;strokeColor=#9673a6;" vertex="1" parent="1">
          <mxGeometry x="400" y="520" width="120" height="80" as="geometry" />
        </mxCell>
        <mxCell id="f6jDIG0TlL_JZQscTppI-81" style="edgeStyle=orthogonalEdgeStyle;rounded=0;orthogonalLoop=1;jettySize=auto;html=1;entryX=1;entryY=0.5;entryDx=0;entryDy=0;strokeWidth=4;strokeColor=#55A600;" edge="1" parent="1" source="f6jDIG0TlL_JZQscTppI-14" target="f6jDIG0TlL_JZQscTppI-6">
          <mxGeometry relative="1" as="geometry" />
        </mxCell>
        <mxCell id="f6jDIG0TlL_JZQscTppI-120" style="edgeStyle=orthogonalEdgeStyle;rounded=0;orthogonalLoop=1;jettySize=auto;html=1;entryX=0.5;entryY=0;entryDx=0;entryDy=0;dashed=1;strokeWidth=3;strokeColor=#F50C0C;dashPattern=8 8;" edge="1" parent="1" source="f6jDIG0TlL_JZQscTppI-14" target="f6jDIG0TlL_JZQscTppI-71">
          <mxGeometry relative="1" as="geometry">
            <Array as="points">
              <mxPoint x="630" y="665" />
              <mxPoint x="620" y="665" />
            </Array>
          </mxGeometry>
        </mxCell>
        <mxCell id="f6jDIG0TlL_JZQscTppI-14" value="Team/ Supervisor 22" style="rounded=1;whiteSpace=wrap;html=1;shadow=0;labelBackgroundColor=none;strokeWidth=1;fontFamily=Verdana;fontSize=12;align=center;fillColor=#e1d5e7;strokeColor=#9673a6;" vertex="1" parent="1">
          <mxGeometry x="600" y="520" width="120" height="80" as="geometry" />
        </mxCell>
        <mxCell id="f6jDIG0TlL_JZQscTppI-35" style="edgeStyle=orthogonalEdgeStyle;rounded=0;orthogonalLoop=1;jettySize=auto;html=1;entryX=0.5;entryY=0;entryDx=0;entryDy=0;strokeColor=#F20C0C;dashed=1;dashPattern=8 8;strokeWidth=3;" edge="1" parent="1" source="f6jDIG0TlL_JZQscTppI-16" target="f6jDIG0TlL_JZQscTppI-27">
          <mxGeometry relative="1" as="geometry" />
        </mxCell>
        <mxCell id="f6jDIG0TlL_JZQscTppI-68" style="edgeStyle=orthogonalEdgeStyle;rounded=0;orthogonalLoop=1;jettySize=auto;html=1;entryX=1;entryY=0.5;entryDx=0;entryDy=0;strokeWidth=4;strokeColor=#55A600;" edge="1" parent="1" source="f6jDIG0TlL_JZQscTppI-16" target="17ea667e15c223fc-4">
          <mxGeometry relative="1" as="geometry">
            <Array as="points">
              <mxPoint x="310" y="370" />
            </Array>
          </mxGeometry>
        </mxCell>
        <mxCell id="f6jDIG0TlL_JZQscTppI-16" value="Team/ Supervisor 12" style="rounded=1;whiteSpace=wrap;html=1;shadow=0;labelBackgroundColor=none;strokeWidth=1;fontFamily=Verdana;fontSize=12;align=center;fillColor=#d5e8d4;strokeColor=#82b366;" vertex="1" parent="1">
          <mxGeometry x="210" y="520" width="120" height="80" as="geometry" />
        </mxCell>
        <mxCell id="f6jDIG0TlL_JZQscTppI-82" style="edgeStyle=orthogonalEdgeStyle;rounded=0;orthogonalLoop=1;jettySize=auto;html=1;entryX=0;entryY=0.5;entryDx=0;entryDy=0;strokeWidth=4;strokeColor=#55A600;" edge="1" parent="1" source="f6jDIG0TlL_JZQscTppI-17" target="17ea667e15c223fc-5">
          <mxGeometry relative="1" as="geometry">
            <Array as="points">
              <mxPoint x="830" y="380" />
            </Array>
          </mxGeometry>
        </mxCell>
        <mxCell id="f6jDIG0TlL_JZQscTppI-17" value="Team/ Supervisor 31" style="rounded=1;whiteSpace=wrap;html=1;shadow=0;labelBackgroundColor=none;strokeWidth=1;fontFamily=Verdana;fontSize=12;align=center;fillColor=#fff2cc;strokeColor=#d6b656;" vertex="1" parent="1">
          <mxGeometry x="800" y="520" width="120" height="80" as="geometry" />
        </mxCell>
        <mxCell id="f6jDIG0TlL_JZQscTppI-25" value="Interviewer 111" style="ellipse;whiteSpace=wrap;html=1;aspect=fixed;fillColor=#d5e8d4;strokeColor=#82b366;" vertex="1" parent="1">
          <mxGeometry x="-110" y="730" width="80" height="80" as="geometry" />
        </mxCell>
        <mxCell id="f6jDIG0TlL_JZQscTppI-27" value="Interviewer 122" style="ellipse;whiteSpace=wrap;html=1;aspect=fixed;fillColor=#d5e8d4;strokeColor=#82b366;" vertex="1" parent="1">
          <mxGeometry x="290" y="730" width="80" height="80" as="geometry" />
        </mxCell>
        <mxCell id="f6jDIG0TlL_JZQscTppI-66" style="edgeStyle=orthogonalEdgeStyle;rounded=0;orthogonalLoop=1;jettySize=auto;html=1;entryX=0;entryY=0.5;entryDx=0;entryDy=0;strokeWidth=4;strokeColor=#55A600;" edge="1" parent="1" source="f6jDIG0TlL_JZQscTppI-28" target="f6jDIG0TlL_JZQscTppI-16">
          <mxGeometry relative="1" as="geometry">
            <Array as="points">
              <mxPoint x="190" y="560" />
            </Array>
          </mxGeometry>
        </mxCell>
        <mxCell id="f6jDIG0TlL_JZQscTppI-28" value="Interviewer 121" style="ellipse;whiteSpace=wrap;html=1;aspect=fixed;fillColor=#d5e8d4;strokeColor=#82b366;" vertex="1" parent="1">
          <mxGeometry x="160" y="730" width="80" height="80" as="geometry" />
        </mxCell>
        <mxCell id="f6jDIG0TlL_JZQscTppI-29" value="Interviewer 112" style="ellipse;whiteSpace=wrap;html=1;aspect=fixed;fillColor=#d5e8d4;strokeColor=#82b366;" vertex="1" parent="1">
          <mxGeometry x="20" y="730" width="80" height="80" as="geometry" />
        </mxCell>
        <mxCell id="f6jDIG0TlL_JZQscTppI-32" style="edgeStyle=orthogonalEdgeStyle;rounded=0;orthogonalLoop=1;jettySize=auto;html=1;exitX=0.25;exitY=1;exitDx=0;exitDy=0;entryX=0.778;entryY=0;entryDx=0;entryDy=0;entryPerimeter=0;strokeColor=#F20C0C;dashed=1;dashPattern=8 8;strokeWidth=3;" edge="1" parent="1">
          <mxGeometry relative="1" as="geometry">
            <mxPoint x="59.97999999999999" y="600" as="sourcePoint" />
            <mxPoint x="-50.00000000000002" y="710" as="targetPoint" />
            <Array as="points">
              <mxPoint x="40" y="600" />
              <mxPoint x="40" y="601" />
              <mxPoint y="601" />
              <mxPoint y="710" />
            </Array>
          </mxGeometry>
        </mxCell>
        <mxCell id="f6jDIG0TlL_JZQscTppI-33" style="edgeStyle=orthogonalEdgeStyle;rounded=0;orthogonalLoop=1;jettySize=auto;html=1;entryX=0.767;entryY=0.078;entryDx=0;entryDy=0;entryPerimeter=0;strokeColor=#F20C0C;dashed=1;dashPattern=8 8;strokeWidth=3;" edge="1" parent="1">
          <mxGeometry relative="1" as="geometry">
            <mxPoint x="80" y="600" as="sourcePoint" />
            <mxPoint x="74.5100000000002" y="710" as="targetPoint" />
            <Array as="points">
              <mxPoint x="75" y="610" />
            </Array>
          </mxGeometry>
        </mxCell>
        <mxCell id="f6jDIG0TlL_JZQscTppI-34" style="edgeStyle=orthogonalEdgeStyle;rounded=0;orthogonalLoop=1;jettySize=auto;html=1;entryX=0.589;entryY=0;entryDx=0;entryDy=0;entryPerimeter=0;strokeColor=#F20C0C;dashed=1;dashPattern=8 8;strokeWidth=3;" edge="1" parent="1" source="f6jDIG0TlL_JZQscTppI-16" target="f6jDIG0TlL_JZQscTppI-28">
          <mxGeometry relative="1" as="geometry" />
        </mxCell>
        <mxCell id="f6jDIG0TlL_JZQscTppI-37" value="Interviewer 311" style="ellipse;whiteSpace=wrap;html=1;aspect=fixed;fillColor=#fff2cc;strokeColor=#d6b656;" vertex="1" parent="1">
          <mxGeometry x="700" y="730" width="80" height="80" as="geometry" />
        </mxCell>
        <mxCell id="f6jDIG0TlL_JZQscTppI-95" style="edgeStyle=orthogonalEdgeStyle;rounded=0;orthogonalLoop=1;jettySize=auto;html=1;entryX=0.75;entryY=1;entryDx=0;entryDy=0;strokeWidth=4;strokeColor=#55A600;" edge="1" parent="1" source="f6jDIG0TlL_JZQscTppI-38" target="f6jDIG0TlL_JZQscTppI-17">
          <mxGeometry relative="1" as="geometry">
            <Array as="points">
              <mxPoint x="880" y="660" />
              <mxPoint x="890" y="660" />
            </Array>
          </mxGeometry>
        </mxCell>
        <mxCell id="f6jDIG0TlL_JZQscTppI-38" value="Interviewer 312" style="ellipse;whiteSpace=wrap;html=1;aspect=fixed;fillColor=#fff2cc;strokeColor=#d6b656;" vertex="1" parent="1">
          <mxGeometry x="810" y="730" width="80" height="80" as="geometry" />
        </mxCell>
        <mxCell id="f6jDIG0TlL_JZQscTppI-91" style="edgeStyle=orthogonalEdgeStyle;rounded=0;orthogonalLoop=1;jettySize=auto;html=1;entryX=0;entryY=0.75;entryDx=0;entryDy=0;strokeWidth=4;strokeColor=#55A600;" edge="1" parent="1" source="f6jDIG0TlL_JZQscTppI-40" target="17ea667e15c223fc-8">
          <mxGeometry relative="1" as="geometry" />
        </mxCell>
        <mxCell id="f6jDIG0TlL_JZQscTppI-40" value="Interviewer 331" style="ellipse;whiteSpace=wrap;html=1;aspect=fixed;fillColor=#fff2cc;strokeColor=#d6b656;" vertex="1" parent="1">
          <mxGeometry x="910" y="730" width="80" height="80" as="geometry" />
        </mxCell>
        <mxCell id="f6jDIG0TlL_JZQscTppI-41" value="Interviewer 332" style="ellipse;whiteSpace=wrap;html=1;aspect=fixed;fillColor=#fff2cc;strokeColor=#d6b656;" vertex="1" parent="1">
          <mxGeometry x="1010" y="730" width="80" height="80" as="geometry" />
        </mxCell>
        <mxCell id="f6jDIG0TlL_JZQscTppI-42" style="edgeStyle=orthogonalEdgeStyle;rounded=0;orthogonalLoop=1;jettySize=auto;html=1;entryX=0.725;entryY=0.013;entryDx=0;entryDy=0;entryPerimeter=0;strokeColor=#F20C0C;dashed=1;dashPattern=8 8;strokeWidth=3;" edge="1" parent="1" source="f6jDIG0TlL_JZQscTppI-17" target="f6jDIG0TlL_JZQscTppI-37">
          <mxGeometry relative="1" as="geometry">
            <Array as="points">
              <mxPoint x="860" y="620" />
              <mxPoint x="770" y="620" />
              <mxPoint x="770" y="700" />
              <mxPoint x="758" y="700" />
            </Array>
          </mxGeometry>
        </mxCell>
        <mxCell id="f6jDIG0TlL_JZQscTppI-43" style="edgeStyle=orthogonalEdgeStyle;rounded=0;orthogonalLoop=1;jettySize=auto;html=1;entryX=0.6;entryY=0;entryDx=0;entryDy=0;entryPerimeter=0;strokeColor=#F50C0C;dashed=1;strokeWidth=3;dashPattern=8 8;" edge="1" parent="1" source="f6jDIG0TlL_JZQscTppI-17" target="f6jDIG0TlL_JZQscTppI-38">
          <mxGeometry relative="1" as="geometry" />
        </mxCell>
        <mxCell id="f6jDIG0TlL_JZQscTppI-44" style="edgeStyle=orthogonalEdgeStyle;rounded=0;orthogonalLoop=1;jettySize=auto;html=1;entryX=0.675;entryY=0.05;entryDx=0;entryDy=0;entryPerimeter=0;strokeColor=#F20C0C;dashed=1;dashPattern=8 8;strokeWidth=3;" edge="1" parent="1" source="17ea667e15c223fc-8" target="f6jDIG0TlL_JZQscTppI-40">
          <mxGeometry relative="1" as="geometry" />
        </mxCell>
        <mxCell id="f6jDIG0TlL_JZQscTppI-45" style="edgeStyle=orthogonalEdgeStyle;rounded=0;orthogonalLoop=1;jettySize=auto;html=1;entryX=0.638;entryY=0.013;entryDx=0;entryDy=0;entryPerimeter=0;strokeColor=#F20C0C;dashed=1;dashPattern=8 8;strokeWidth=3;" edge="1" parent="1" source="17ea667e15c223fc-8" target="f6jDIG0TlL_JZQscTppI-41">
          <mxGeometry relative="1" as="geometry" />
        </mxCell>
        <mxCell id="f6jDIG0TlL_JZQscTppI-54" value="CAPI Questionnaire&lt;div&gt;Data Quality and Progress Monitoring tool&amp;nbsp;&lt;/div&gt;&lt;div&gt;Server configuration&amp;nbsp;&lt;/div&gt;&lt;div&gt;sampled household assignment preparation&lt;/div&gt;" style="ellipse;shape=cloud;whiteSpace=wrap;html=1;" vertex="1" parent="1">
          <mxGeometry x="700" y="40" width="340" height="150" as="geometry" />
        </mxCell>
        <mxCell id="f6jDIG0TlL_JZQscTppI-58" style="edgeStyle=orthogonalEdgeStyle;rounded=0;orthogonalLoop=1;jettySize=auto;html=1;entryX=0.125;entryY=-0.025;entryDx=0;entryDy=0;entryPerimeter=0;strokeColor=#F20C0C;dashed=1;dashPattern=8 8;strokeWidth=3;" edge="1" parent="1" source="17ea667e15c223fc-5" target="17ea667e15c223fc-8">
          <mxGeometry relative="1" as="geometry">
            <Array as="points">
              <mxPoint x="910" y="390" />
              <mxPoint x="985" y="390" />
            </Array>
          </mxGeometry>
        </mxCell>
        <mxCell id="f6jDIG0TlL_JZQscTppI-59" style="edgeStyle=orthogonalEdgeStyle;rounded=0;orthogonalLoop=1;jettySize=auto;html=1;entryX=0.625;entryY=-0.012;entryDx=0;entryDy=0;entryPerimeter=0;strokeColor=#F20C0C;dashed=1;dashPattern=8 8;strokeWidth=3;" edge="1" parent="1" source="17ea667e15c223fc-5" target="f6jDIG0TlL_JZQscTppI-17">
          <mxGeometry relative="1" as="geometry" />
        </mxCell>
        <mxCell id="f6jDIG0TlL_JZQscTppI-61" style="edgeStyle=orthogonalEdgeStyle;rounded=0;orthogonalLoop=1;jettySize=auto;html=1;entryX=0.183;entryY=0.013;entryDx=0;entryDy=0;entryPerimeter=0;strokeColor=#F20C0C;dashed=1;dashPattern=8 8;strokeWidth=3;" edge="1" parent="1" source="f6jDIG0TlL_JZQscTppI-6" target="f6jDIG0TlL_JZQscTppI-14">
          <mxGeometry relative="1" as="geometry" />
        </mxCell>
        <mxCell id="f6jDIG0TlL_JZQscTppI-63" style="edgeStyle=orthogonalEdgeStyle;rounded=0;orthogonalLoop=1;jettySize=auto;html=1;entryX=0.617;entryY=1.025;entryDx=0;entryDy=0;entryPerimeter=0;strokeWidth=4;strokeColor=#55A600;" edge="1" parent="1" source="f6jDIG0TlL_JZQscTppI-29" target="17ea667e15c223fc-7">
          <mxGeometry relative="1" as="geometry">
            <Array as="points">
              <mxPoint x="90" y="655" />
              <mxPoint x="114" y="655" />
            </Array>
          </mxGeometry>
        </mxCell>
        <mxCell id="f6jDIG0TlL_JZQscTppI-64" style="edgeStyle=orthogonalEdgeStyle;rounded=0;orthogonalLoop=1;jettySize=auto;html=1;entryX=-0.033;entryY=0.388;entryDx=0;entryDy=0;entryPerimeter=0;strokeWidth=4;strokeColor=#55A600;" edge="1" parent="1" source="f6jDIG0TlL_JZQscTppI-25" target="17ea667e15c223fc-7">
          <mxGeometry relative="1" as="geometry">
            <Array as="points">
              <mxPoint x="-60" y="551" />
            </Array>
          </mxGeometry>
        </mxCell>
        <mxCell id="f6jDIG0TlL_JZQscTppI-65" style="edgeStyle=orthogonalEdgeStyle;rounded=0;orthogonalLoop=1;jettySize=auto;html=1;entryX=1;entryY=0.638;entryDx=0;entryDy=0;entryPerimeter=0;strokeWidth=4;strokeColor=#55A600;" edge="1" parent="1" source="f6jDIG0TlL_JZQscTppI-27" target="f6jDIG0TlL_JZQscTppI-16">
          <mxGeometry relative="1" as="geometry">
            <Array as="points">
              <mxPoint x="350" y="571" />
            </Array>
          </mxGeometry>
        </mxCell>
        <mxCell id="f6jDIG0TlL_JZQscTppI-78" style="edgeStyle=orthogonalEdgeStyle;rounded=0;orthogonalLoop=1;jettySize=auto;html=1;exitX=0;exitY=0;exitDx=0;exitDy=0;entryX=0.25;entryY=1;entryDx=0;entryDy=0;strokeWidth=4;strokeColor=#55A600;" edge="1" parent="1" source="f6jDIG0TlL_JZQscTppI-69" target="f6jDIG0TlL_JZQscTppI-12">
          <mxGeometry relative="1" as="geometry" />
        </mxCell>
        <mxCell id="f6jDIG0TlL_JZQscTppI-69" value="Interviewer 211" style="ellipse;whiteSpace=wrap;html=1;aspect=fixed;fillColor=#e1d5e7;strokeColor=#9673a6;" vertex="1" parent="1">
          <mxGeometry x="440" y="730" width="80" height="80" as="geometry" />
        </mxCell>
        <mxCell id="f6jDIG0TlL_JZQscTppI-79" style="edgeStyle=orthogonalEdgeStyle;rounded=0;orthogonalLoop=1;jettySize=auto;html=1;exitX=1;exitY=0;exitDx=0;exitDy=0;entryX=0.5;entryY=1;entryDx=0;entryDy=0;strokeWidth=4;strokeColor=#55A600;" edge="1" parent="1" source="f6jDIG0TlL_JZQscTppI-71" target="f6jDIG0TlL_JZQscTppI-14">
          <mxGeometry relative="1" as="geometry" />
        </mxCell>
        <mxCell id="f6jDIG0TlL_JZQscTppI-71" value="Interviewer 221" style="ellipse;whiteSpace=wrap;html=1;aspect=fixed;fillColor=#e1d5e7;strokeColor=#9673a6;" vertex="1" parent="1">
          <mxGeometry x="580" y="730" width="80" height="80" as="geometry" />
        </mxCell>
        <mxCell id="f6jDIG0TlL_JZQscTppI-89" style="edgeStyle=orthogonalEdgeStyle;rounded=0;orthogonalLoop=1;jettySize=auto;html=1;entryX=1;entryY=0.375;entryDx=0;entryDy=0;entryPerimeter=0;strokeWidth=4;strokeColor=#55A600;" edge="1" parent="1" source="17ea667e15c223fc-8" target="17ea667e15c223fc-5">
          <mxGeometry relative="1" as="geometry" />
        </mxCell>
        <mxCell id="f6jDIG0TlL_JZQscTppI-90" style="edgeStyle=orthogonalEdgeStyle;rounded=0;orthogonalLoop=1;jettySize=auto;html=1;entryX=0.933;entryY=1.013;entryDx=0;entryDy=0;entryPerimeter=0;strokeWidth=4;strokeColor=#55A600;" edge="1" parent="1" source="f6jDIG0TlL_JZQscTppI-41" target="17ea667e15c223fc-8">
          <mxGeometry relative="1" as="geometry">
            <Array as="points">
              <mxPoint x="1080" y="660" />
              <mxPoint x="1082" y="660" />
            </Array>
          </mxGeometry>
        </mxCell>
        <mxCell id="f6jDIG0TlL_JZQscTppI-93" style="edgeStyle=orthogonalEdgeStyle;rounded=0;orthogonalLoop=1;jettySize=auto;html=1;entryX=0;entryY=0.375;entryDx=0;entryDy=0;entryPerimeter=0;strokeWidth=4;strokeColor=#55A600;" edge="1" parent="1" source="f6jDIG0TlL_JZQscTppI-37" target="f6jDIG0TlL_JZQscTppI-17">
          <mxGeometry relative="1" as="geometry">
            <Array as="points">
              <mxPoint x="720" y="660" />
              <mxPoint x="740" y="660" />
              <mxPoint x="740" y="550" />
            </Array>
          </mxGeometry>
        </mxCell>
        <mxCell id="f6jDIG0TlL_JZQscTppI-107" value="" style="verticalLabelPosition=bottom;sketch=0;aspect=fixed;html=1;verticalAlign=top;strokeColor=none;align=center;outlineConnect=0;shape=mxgraph.citrix.pda;" vertex="1" parent="1">
          <mxGeometry x="-70" y="789" width="30" height="61" as="geometry" />
        </mxCell>
        <mxCell id="f6jDIG0TlL_JZQscTppI-108" value="" style="verticalLabelPosition=bottom;sketch=0;aspect=fixed;html=1;verticalAlign=top;strokeColor=none;align=center;outlineConnect=0;shape=mxgraph.citrix.pda;" vertex="1" parent="1">
          <mxGeometry x="60" y="789" width="30" height="61" as="geometry" />
        </mxCell>
        <mxCell id="f6jDIG0TlL_JZQscTppI-112" value="" style="verticalLabelPosition=bottom;sketch=0;aspect=fixed;html=1;verticalAlign=top;strokeColor=none;align=center;outlineConnect=0;shape=mxgraph.citrix.pda;" vertex="1" parent="1">
          <mxGeometry x="200" y="789" width="30" height="61" as="geometry" />
        </mxCell>
        <mxCell id="f6jDIG0TlL_JZQscTppI-113" value="" style="verticalLabelPosition=bottom;sketch=0;aspect=fixed;html=1;verticalAlign=top;strokeColor=none;align=center;outlineConnect=0;shape=mxgraph.citrix.pda;" vertex="1" parent="1">
          <mxGeometry x="320" y="789" width="30" height="61" as="geometry" />
        </mxCell>
        <mxCell id="f6jDIG0TlL_JZQscTppI-114" value="" style="verticalLabelPosition=bottom;sketch=0;aspect=fixed;html=1;verticalAlign=top;strokeColor=none;align=center;outlineConnect=0;shape=mxgraph.citrix.pda;" vertex="1" parent="1">
          <mxGeometry x="480" y="788" width="30" height="61" as="geometry" />
        </mxCell>
        <mxCell id="f6jDIG0TlL_JZQscTppI-115" value="" style="verticalLabelPosition=bottom;sketch=0;aspect=fixed;html=1;verticalAlign=top;strokeColor=none;align=center;outlineConnect=0;shape=mxgraph.citrix.pda;" vertex="1" parent="1">
          <mxGeometry x="620" y="788" width="30" height="61" as="geometry" />
        </mxCell>
        <mxCell id="f6jDIG0TlL_JZQscTppI-116" value="" style="verticalLabelPosition=bottom;sketch=0;aspect=fixed;html=1;verticalAlign=top;strokeColor=none;align=center;outlineConnect=0;shape=mxgraph.citrix.pda;" vertex="1" parent="1">
          <mxGeometry x="725" y="789" width="30" height="61" as="geometry" />
        </mxCell>
        <mxCell id="f6jDIG0TlL_JZQscTppI-117" value="" style="verticalLabelPosition=bottom;sketch=0;aspect=fixed;html=1;verticalAlign=top;strokeColor=none;align=center;outlineConnect=0;shape=mxgraph.citrix.pda;" vertex="1" parent="1">
          <mxGeometry x="850" y="789" width="30" height="61" as="geometry" />
        </mxCell>
        <mxCell id="f6jDIG0TlL_JZQscTppI-118" value="" style="verticalLabelPosition=bottom;sketch=0;aspect=fixed;html=1;verticalAlign=top;strokeColor=none;align=center;outlineConnect=0;shape=mxgraph.citrix.pda;" vertex="1" parent="1">
          <mxGeometry x="950" y="789" width="30" height="61" as="geometry" />
        </mxCell>
        <mxCell id="f6jDIG0TlL_JZQscTppI-119" value="" style="verticalLabelPosition=bottom;sketch=0;aspect=fixed;html=1;verticalAlign=top;strokeColor=none;align=center;outlineConnect=0;shape=mxgraph.citrix.pda;" vertex="1" parent="1">
          <mxGeometry x="1040" y="788" width="30" height="61" as="geometry" />
        </mxCell>
        <mxCell id="f6jDIG0TlL_JZQscTppI-134" value="&lt;font style=&quot;font-size: 20px;&quot;&gt;&lt;b&gt;Server&lt;/b&gt;&lt;/font&gt;" style="rounded=0;whiteSpace=wrap;html=1;fillColor=#bac8d3;strokeColor=#23445d;" vertex="1" parent="1">
          <mxGeometry x="188.75" y="-130" width="90" height="60" as="geometry" />
        </mxCell>
        <mxCell id="f6jDIG0TlL_JZQscTppI-138" style="edgeStyle=orthogonalEdgeStyle;rounded=0;orthogonalLoop=1;jettySize=auto;html=1;entryX=0;entryY=0.5;entryDx=0;entryDy=0;dashed=1;dashPattern=8 8;strokeWidth=3;strokeColor=#E01B63;" edge="1" parent="1" target="17ea667e15c223fc-1">
          <mxGeometry relative="1" as="geometry">
            <mxPoint x="310" y="-20" as="sourcePoint" />
          </mxGeometry>
        </mxCell>
        <mxCell id="f6jDIG0TlL_JZQscTppI-136" style="edgeStyle=orthogonalEdgeStyle;rounded=0;orthogonalLoop=1;jettySize=auto;html=1;entryX=0.369;entryY=-0.012;entryDx=0;entryDy=0;entryPerimeter=0;dashed=1;dashPattern=8 8;strokeWidth=3;strokeColor=#E01B63;" edge="1" parent="1" target="17ea667e15c223fc-2">
          <mxGeometry relative="1" as="geometry">
            <mxPoint x="310" y="-20" as="sourcePoint" />
            <Array as="points">
              <mxPoint x="310" y="-19" />
              <mxPoint x="548" y="-19" />
            </Array>
          </mxGeometry>
        </mxCell>
        <mxCell id="f6jDIG0TlL_JZQscTppI-139" value="" style="verticalLabelPosition=bottom;sketch=0;aspect=fixed;html=1;verticalAlign=top;strokeColor=none;align=center;outlineConnect=0;shape=mxgraph.citrix.datacenter;" vertex="1" parent="1">
          <mxGeometry x="170" y="-80" width="127.5" height="135" as="geometry" />
        </mxCell>
      </root>
    </mxGraphModel>
  </diagram>
</mxfile>
